<svg version="1.1" id="Layer_1" xmlns="http://www.w3.org/2000/svg" xmlns:xlink="http://www.w3.org/1999/xlink" x="0px" y="0px"
	 width="100%" viewBox="0 0 512 512" enable-background="new 0 0 512 512" xml:space="preserve">
<path fill="#234F5A" opacity="1.000000" stroke="none" 
	d="
M513.000000,204.000000 
	C513.000000,307.308228 513.000000,410.116455 513.000000,512.924683 
	C512.858459,512.949829 512.716980,512.996948 512.575439,512.996948 
	C342.117035,513.000061 171.658661,513.000000 1.100134,513.000000 
	C1.100134,342.441803 1.100134,171.883514 1.100134,1.162619 
	C171.666534,1.162619 342.333252,1.162619 513.000000,1.162619 
	C513.000000,68.533112 513.000000,136.016556 513.000000,204.000000 
M41.259102,445.089355 
	C55.203548,443.841095 68.400253,440.161316 80.286903,432.589172 
	C90.952019,425.795135 97.617790,416.109863 99.526001,403.562927 
	C100.296776,398.494904 100.223495,393.267822 100.201698,388.114532 
	C99.908577,318.802338 99.693436,249.489258 99.114342,180.179260 
	C98.984390,164.625351 104.537903,153.078659 118.655624,146.043304 
	C118.823105,145.959824 118.824989,145.544037 118.871063,145.392365 
	C94.610497,145.392365 70.320930,145.392365 45.066441,145.392365 
	C56.647957,151.715637 64.144241,159.877167 64.973907,172.655121 
	C65.394829,179.137878 65.790863,185.636032 65.814529,192.128632 
	C66.046570,255.777557 66.231033,319.426697 66.354874,383.075928 
	C66.401878,407.232056 60.323742,428.889160 40.536179,444.531677 
	C40.536179,444.531677 40.619938,444.689178 40.619938,444.689178 
	C40.619938,444.689178 40.493370,444.505005 41.259102,445.089355 
M425.789856,368.485992 
	C423.635742,368.485992 421.481598,368.485992 419.327484,368.485992 
	C421.127716,370.595978 422.909241,371.780548 424.772827,372.817688 
	C436.394928,379.285248 441.635773,389.008942 441.205292,402.419647 
	C440.767151,416.068878 441.150696,429.750031 441.417206,443.412476 
	C441.483307,446.801819 440.629608,448.290802 437.124176,449.205658 
	C422.487854,453.025513 407.660889,454.483032 392.589081,453.844788 
	C350.035065,452.042816 315.952026,426.824280 303.192108,387.455505 
	C294.656250,361.119507 294.612061,334.355682 300.362732,307.529724 
	C303.579346,292.524811 309.947662,278.854218 320.211884,267.236328 
	C340.825073,243.904694 367.688721,239.416016 396.725800,242.561096 
	C418.662018,244.937057 435.970551,256.453674 450.634277,272.268127 
	C455.884827,277.930725 460.596283,284.093201 466.442078,291.090851 
	C465.047424,273.647827 463.851501,257.436584 462.281281,241.261642 
	C462.145203,239.859985 459.738068,238.028214 458.049255,237.524216 
	C426.046844,227.973892 393.399597,224.517929 360.275970,229.245346 
	C333.487701,233.068588 309.934113,244.224182 291.283447,264.272858 
	C267.916351,289.391449 258.859222,319.883667 259.056183,353.552338 
	C259.226105,382.601105 267.049011,409.180054 286.257690,431.513977 
	C311.661499,461.050934 344.897644,472.927795 383.011230,473.130157 
	C403.627686,473.239624 423.419739,469.332214 441.811981,459.798462 
	C444.924530,458.185089 446.945740,458.083862 449.843842,459.802429 
	C457.033722,464.066071 464.424774,467.990448 472.383484,472.411316 
	C472.383484,469.677887 472.390167,467.875336 472.382477,466.072845 
	C472.288483,444.073639 472.438354,422.069519 472.001312,400.077087 
	C471.753387,387.599213 474.828705,377.058014 485.628815,369.748413 
	C485.760651,369.659210 485.645233,369.204742 485.645233,368.486053 
	C465.963470,368.486053 446.338226,368.486053 425.789856,368.485992 
M187.496567,262.512451 
	C187.071518,275.993866 186.770645,289.480682 186.185013,302.955109 
	C185.645004,315.380371 180.153595,324.885071 168.885437,330.717468 
	C168.689560,330.818878 168.667664,331.256409 168.550842,331.574524 
	C192.551941,331.574524 216.536041,331.574524 241.833313,331.574524 
	C232.754852,326.326874 226.255341,320.089203 224.335709,310.785919 
	C222.899887,303.827362 222.140228,296.609985 222.097107,289.501709 
	C221.635315,213.368774 221.374847,137.234619 221.072769,61.100750 
	C221.067062,59.664364 221.226959,58.227325 221.302124,56.920189 
	C246.550598,56.920189 271.359802,56.750225 296.161133,57.114159 
	C299.646729,57.165302 304.085327,58.942089 306.348816,61.471680 
	C310.808319,66.455444 314.313690,72.374741 317.710724,78.200409 
	C320.226410,82.514603 321.946625,87.292625 324.021210,91.864029 
	C324.496887,91.758148 324.972565,91.652267 325.448242,91.546387 
	C325.448242,74.816910 325.448242,58.087437 325.448242,41.466568 
	C244.800827,41.466568 163.822479,41.466568 82.503639,41.466568 
	C81.999924,58.103058 81.499557,74.628929 80.999191,91.154808 
	C84.823334,85.326103 87.847588,79.317184 91.051254,73.405495 
	C97.329956,61.819485 106.774384,56.111931 120.304466,56.398037 
	C140.953766,56.834690 161.619141,56.506710 182.277664,56.523720 
	C183.882294,56.525040 185.486771,56.686134 187.513260,56.795803 
	C187.513260,125.314713 187.513260,193.416153 187.496567,262.512451 
z"/>
<path fill="#FCFDFD" opacity="1.000000" stroke="none" 
	d="
M426.251404,368.486023 
	C446.338226,368.486053 465.963470,368.486053 485.645233,368.486053 
	C485.645233,369.204742 485.760651,369.659210 485.628815,369.748413 
	C474.828705,377.058014 471.753387,387.599213 472.001312,400.077087 
	C472.438354,422.069519 472.288483,444.073639 472.382477,466.072845 
	C472.390167,467.875336 472.383484,469.677887 472.383484,472.411316 
	C464.424774,467.990448 457.033722,464.066071 449.843842,459.802429 
	C446.945740,458.083862 444.924530,458.185089 441.811981,459.798462 
	C423.419739,469.332214 403.627686,473.239624 383.011230,473.130157 
	C344.897644,472.927795 311.661499,461.050934 286.257690,431.513977 
	C267.049011,409.180054 259.226105,382.601105 259.056183,353.552338 
	C258.859222,319.883667 267.916351,289.391449 291.283447,264.272858 
	C309.934113,244.224182 333.487701,233.068588 360.275970,229.245346 
	C393.399597,224.517929 426.046844,227.973892 458.049255,237.524216 
	C459.738068,238.028214 462.145203,239.859985 462.281281,241.261642 
	C463.851501,257.436584 465.047424,273.647827 466.442078,291.090851 
	C460.596283,284.093201 455.884827,277.930725 450.634277,272.268127 
	C435.970551,256.453674 418.662018,244.937057 396.725800,242.561096 
	C367.688721,239.416016 340.825073,243.904694 320.211884,267.236328 
	C309.947662,278.854218 303.579346,292.524811 300.362732,307.529724 
	C294.612061,334.355682 294.656250,361.119507 303.192108,387.455505 
	C315.952026,426.824280 350.035065,452.042816 392.589081,453.844788 
	C407.660889,454.483032 422.487854,453.025513 437.124176,449.205658 
	C440.629608,448.290802 441.483307,446.801819 441.417206,443.412476 
	C441.150696,429.750031 440.767151,416.068878 441.205292,402.419647 
	C441.635773,389.008942 436.394928,379.285248 424.772827,372.817688 
	C422.909241,371.780548 421.127716,370.595978 419.327484,368.485992 
	C421.481598,368.485992 423.635742,368.485992 426.251404,368.486023 
z"/>
<path fill="#FDFDFD" opacity="1.000000" stroke="none" 
	d="
M187.504913,262.015015 
	C187.513260,193.416153 187.513260,125.314713 187.513260,56.795803 
	C185.486771,56.686134 183.882294,56.525040 182.277664,56.523720 
	C161.619141,56.506710 140.953766,56.834690 120.304466,56.398037 
	C106.774384,56.111931 97.329956,61.819485 91.051254,73.405495 
	C87.847588,79.317184 84.823334,85.326103 80.999191,91.154808 
	C81.499557,74.628929 81.999924,58.103058 82.503639,41.466568 
	C163.822479,41.466568 244.800827,41.466568 325.448242,41.466568 
	C325.448242,58.087437 325.448242,74.816910 325.448242,91.546387 
	C324.972565,91.652267 324.496887,91.758148 324.021210,91.864029 
	C321.946625,87.292625 320.226410,82.514603 317.710724,78.200409 
	C314.313690,72.374741 310.808319,66.455444 306.348816,61.471680 
	C304.085327,58.942089 299.646729,57.165302 296.161133,57.114159 
	C271.359802,56.750225 246.550598,56.920189 221.302124,56.920189 
	C221.226959,58.227325 221.067062,59.664364 221.072769,61.100750 
	C221.374847,137.234619 221.635315,213.368774 222.097107,289.501709 
	C222.140228,296.609985 222.899887,303.827362 224.335709,310.785919 
	C226.255341,320.089203 232.754852,326.326874 241.833313,331.574524 
	C216.536041,331.574524 192.551941,331.574524 168.550842,331.574524 
	C168.667664,331.256409 168.689560,330.818878 168.885437,330.717468 
	C180.153595,324.885071 185.645004,315.380371 186.185013,302.955109 
	C186.770645,289.480682 187.071518,275.993866 187.504913,262.015015 
z"/>
<path fill="#FDFDFD" opacity="1.000000" stroke="none" 
	d="
M40.416668,444.682922 
	C60.323742,428.889160 66.401878,407.232056 66.354874,383.075928 
	C66.231033,319.426697 66.046570,255.777557 65.814529,192.128632 
	C65.790863,185.636032 65.394829,179.137878 64.973907,172.655121 
	C64.144241,159.877167 56.647957,151.715637 45.066441,145.392365 
	C70.320930,145.392365 94.610497,145.392365 118.871063,145.392365 
	C118.824989,145.544037 118.823105,145.959824 118.655624,146.043304 
	C104.537903,153.078659 98.984390,164.625351 99.114342,180.179260 
	C99.693436,249.489258 99.908577,318.802338 100.201698,388.114532 
	C100.223495,393.267822 100.296776,398.494904 99.526001,403.562927 
	C97.617790,416.109863 90.952019,425.795135 80.286903,432.589172 
	C68.400253,440.161316 55.203548,443.841095 40.890762,444.856201 
	C40.522427,444.623016 40.416668,444.682922 40.416668,444.682922 
z"/>
<path fill="#FDFDFD" opacity="1.000000" stroke="none" 
	d="
M40.507896,444.564026 
	C40.493370,444.505005 40.619938,444.689178 40.619938,444.689178 
	C40.619938,444.689178 40.536179,444.531677 40.476425,444.607300 
	C40.416668,444.682922 40.522427,444.623016 40.507896,444.564026 
z"/>
</svg>